 <svg  version="1.0" xmlns="http://www.w3.org/2000/svg"  width="900.000000pt" height="507.000000pt" viewBox="0 0 900.000000 507.000000"  preserveAspectRatio="xMidYMid meet">  <g transform="translate(0.000000,507.000000) scale(0.100000,-0.100000)" fill="#64325a" stroke="none"> <path d="M1540 959 c-58 -5 -148 -14 -200 -20 -52 -6 -122 -15 -155 -19 -71 -8 -173 -27 -413 -76 -131 -27 -323 -75 -472 -119 -25 -7 -72 -20 -105 -30 -33 -10 -76 -24 -95 -31 -19 -7 -50 -16 -68 -19 l-32 -7 0 -319 0 -319 2123 0 2122 0 -45 43 c-25 23 -74 67 -109 97 -35 30 -69 60 -75 65 -22 21 -183 142 -239 180 -74 51 -87 59 -188 120 -112 67 -109 66 -229 125 -104 52 -139 68 -202 94 -18 7 -49 20 -68 28 -47 20 -98 38 -135 48 -16 4 -41 12 -55 17 -38 16 -127 40 -210 58 -41 9 -98 23 -126 31 -28 8 -63 14 -78 14 -16 0 -67 6 -115 14 -203 34 -575 45 -831 25z"/> </g> </svg> 