 <svg  version="1.0" xmlns="http://www.w3.org/2000/svg"  width="900.000000pt" height="507.000000pt" viewBox="0 0 900.000000 507.000000"  preserveAspectRatio="xMidYMid meet">  <g transform="translate(0.000000,507.000000) scale(0.100000,-0.100000)" fill="#ffffff" stroke="none"> <path d="M7090 1010 c-85 -4 -198 -12 -250 -19 -153 -19 -308 -40 -407 -56 -51 -8 -137 -22 -190 -31 -54 -8 -129 -22 -168 -30 -38 -8 -79 -14 -90 -14 -11 0 -51 -6 -90 -14 -38 -8 -108 -22 -155 -31 -47 -9 -107 -21 -135 -27 -27 -6 -70 -14 -95 -18 -25 -4 -65 -12 -90 -18 -25 -6 -81 -18 -125 -27 -44 -9 -98 -22 -120 -27 -22 -6 -58 -14 -80 -18 -22 -4 -62 -13 -90 -20 -27 -6 -75 -18 -105 -25 -30 -8 -75 -19 -100 -26 -25 -7 -63 -16 -85 -20 -40 -8 -83 -18 -185 -46 -30 -8 -80 -21 -110 -29 -30 -9 -80 -22 -110 -30 -30 -9 -77 -21 -105 -29 -27 -7 -77 -21 -110 -31 -92 -26 -145 -41 -210 -60 -33 -9 -75 -23 -93 -30 -18 -8 -41 -14 -52 -14 -11 0 -34 -6 -52 -14 -18 -7 -60 -21 -93 -31 -33 -9 -76 -23 -95 -30 -90 -32 -112 -39 -235 -75 -16 -4 -55 -18 -85 -30 -30 -12 -68 -25 -85 -30 -46 -13 -158 -53 -213 -76 -18 -8 -41 -14 -52 -14 -10 0 -22 -5 -25 -10 -4 -7 1030 -10 3094 -10 l3101 0 0 268 c0 252 -1 268 -19 277 -10 6 -54 37 -97 71 -44 33 -86 64 -94 67 -8 4 -28 16 -45 27 -38 24 -216 112 -275 135 -25 9 -56 22 -70 27 -14 6 -38 14 -55 18 -16 5 -43 13 -60 19 -75 25 -236 59 -410 86 -119 18 -557 27 -785 15z"/> </g> </svg> 